<?xml version="1.0" encoding="utf-8"?>
<!-- Generator: Adobe Illustrator 27.5.0, SVG Export Plug-In . SVG Version: 6.00 Build 0)  -->
<svg version="1.1" id="Layer_1" xmlns="http://www.w3.org/2000/svg" xmlns:xlink="http://www.w3.org/1999/xlink" x="0px" y="0px"
	 viewBox="0 0 595.3 841.9" style="enable-background:new 0 0 595.3 841.9;" xml:space="preserve">
<style type="text/css">
	.st0{fill:none;}
	.st1{display:none;fill:#FFFFFF;}
	.st2{display:none;fill:none;}
	.st3{fill:none;stroke:#000000;stroke-width:3;stroke-miterlimit:10;}
</style>
<image style="display:none;overflow:visible;enable-background:new    ;" width="1001" height="1001" xlink:href="6DA1A332DB36DB9D.png"  transform="matrix(0.4895 0 0 0.4895 59 152.89)">
</image>
<path class="st0" d="M59.5,286.7c-0.3-0.4-0.2-1,0.3-1.2c28.2-15.3,56.3-30.6,84.4-45.8c53.1-28.8,106.2-57.7,159.3-86.5
	c0.2-0.1,0.6-0.1,0.8,0c79.6,44.1,159.2,88.2,238.8,132.3c0.4,0.2,0.6,0.8,0.3,1.2L304.7,641.8c-0.3,0.5-1.1,0.5-1.4,0L59.5,286.7z"
	/>
<polygon class="st1" points="144,240.9 407,316.9 427,462.9 179,462.9 "/>
<path class="st2" d="M304,459.9"/>
<path class="st3" d="M306.4,464.9c-0.2-0.1-0.5-0.2-0.7-0.4c-34.7-48.9-69.4-97.8-104.1-146.7c-0.3-0.5-0.1-1.1,0.5-1.3
	c85.2-24.1,170.4-48.2,255.6-72.3c0.6-0.2,1.1,0.3,1.1,0.9l-30.7,219c-0.1,0.4-0.4,0.7-0.8,0.7H306.4V464.9z"/>
<path class="st3" d="M300.6,332.6c10.7-2,64.7-12,103.9-19.2l41.2-7.6c0.4-0.1,0.6-0.4,0.7-0.7l8.7-62c0.1-0.9-1-1.3-1.5-0.6
	L304.1,458.4c-0.5,0.7-1.5,0.4-1.5-0.5l-2-307.9c0-0.6-0.7-1-1.2-0.7L80.1,268.4c-1,0.5-0.2,2,0.8,1.5l64.5-30.1
	c0.2-0.1,0.4-0.1,0.6-0.1l251.6,69.9c0.1,0,0.1,0,0.2,0.1c3.8,2.1,3.3,0.2,2.1-1.8c-0.5-0.8-1.7-0.4-1.6,0.6l26,150.1
	c0.1,0.8,1.1,1,1.5,0.3l113.7-170.6c0.4-0.6-0.1-1.4-0.9-1.3L300.6,332.6z"/>
<path class="st3" d="M182.3,462.6l22.2-140.5c0-0.2,0-0.4-0.1-0.6l-49.9-70c-0.5-0.7-1.6-0.3-1.5,0.6l25.6,207.5
	c0,0.1,0.1,0.3,0.1,0.4l6.1,8.9c0.3,0.4,0.9,0.5,1.3,0.1l1.3-1.3l131.9-128c0.1-0.1,0.3-0.2,0.4-0.2l225.6-43.2
	c0.8-0.1,0.9-1.2,0.3-1.6L307.9,158c-0.2-0.1-0.6-0.1-0.8,0L63.4,290.4c-0.4,0.2-0.6,0.8-0.3,1.2l243.8,355.2c0.3,0.5,1.1,0.5,1.4,0
	l116.4-173.2c0.4-0.6,0-1.3-0.7-1.3l-114.4-1h-117l112.6-5.7c0.5,0,0.9,0.4,0.9,0.8v170.8c0,0.8,1,1.2,1.5,0.5l123.8-167.6
	c0.1-0.2,0.2-0.4,0.1-0.6l-22.8-141.8c-0.1-0.5-0.5-0.8-0.9-0.7l-106.4,13.9c-0.1,0-0.2,0-0.3,0L96.3,298l-22.8-4.8
	c-0.7-0.1-1.3,0.6-0.9,1.3l108.1,168.4C181.2,463.6,182.2,463.4,182.3,462.6z"/>
<path class="st3" d="M305.1,338l122.6,120.2c0.2,0.2,0.2,0.4,0.2,0.6v3.3c0,0.8,1.1,1.2,1.5,0.5l0,0c0.6-0.8-0.5-1.8-1.3-1.1
	l-6.1,5.7c-0.2,0.1-0.4,0.2-0.6,0.2L180.1,460c-0.7,0-1.1,0.8-0.7,1.3l2.3,3.4c0.1,0.2,0.3,0.3,0.5,0.4l6.4,1.3
	c0.3,0.1,0.6,0,0.8-0.2l112-117.3c0.1-0.1,0.2-0.2,0.2-0.4l2.1-10C303.8,337.7,304.6,337.5,305.1,338z"/>
<path class="st3" d="M336,442.9"/>
</svg>
